<svg width="36" height="36" viewBox="0 0 36 36" fill="none" xmlns="http://www.w3.org/2000/svg">
<path d="M18 6C18.7969 6 19.5 6.70312 19.5 7.5V8.4375C22.9219 9.09375 25.5 12.1406 25.5 15.75V16.9688C25.5 19.0781 26.2031 21.1406 27.5156 22.8281L28.2188 23.6719C28.5 24.0469 28.5469 24.5156 28.3594 24.8906C28.1719 25.2656 27.7969 25.5 27.375 25.5H8.625C8.15625 25.5 7.78125 25.2656 7.59375 24.8906C7.40625 24.5156 7.45312 24.0469 7.73438 23.6719L8.4375 22.8281C9.75 21.1406 10.5 19.0781 10.5 16.9688V15.75C10.5 12.1406 13.0781 9.09375 16.5 8.4375V7.5C16.5 6.70312 17.1562 6 18 6ZM18 10.5C15.0938 10.5 12.75 12.8906 12.75 15.75V16.9688C12.75 19.2188 12.0938 21.375 10.875 23.25H25.0781C23.8594 21.375 23.25 19.2188 23.25 16.9688V15.75C23.25 12.8906 20.8594 10.5 18 10.5ZM21 27C21 27.7969 20.6719 28.5938 20.1094 29.1562C19.5469 29.7188 18.7969 30 18 30C17.2031 30 16.4062 29.7188 15.8438 29.1562C15.2812 28.5938 15 27.7969 15 27H18H21Z" fill="#182230"/>
</svg>
