<svg width="197" height="197" viewBox="0 0 197 197" fill="none" xmlns="http://www.w3.org/2000/svg">
<path d="M98.0004 9.12695C115.582 9.12702 132.769 14.351 147.387 24.1377C162.006 33.9245 173.399 47.8344 180.127 64.1084C186.855 80.3824 188.615 98.2902 185.185 115.566C181.755 132.843 173.29 148.713 160.858 161.169L160.857 161.168C148.425 173.624 132.586 182.107 115.342 185.544C98.0983 188.981 80.224 187.217 63.9808 180.476C47.7378 173.734 33.8546 162.318 24.0873 147.672C14.32 133.025 9.10681 115.806 9.10681 98.1914V96.9824H55.3666V98.1914C55.3666 106.641 57.8673 114.901 62.5521 121.926C67.2369 128.951 73.8958 134.426 81.6859 137.659C89.4755 140.892 98.0473 141.737 106.317 140.089C114.586 138.441 122.183 134.373 128.146 128.399C134.108 122.425 138.169 114.813 139.814 106.526V106.525C141.459 98.2385 140.615 89.6485 137.388 81.8428C134.161 74.0365 128.696 67.3645 121.685 62.6709C114.674 57.9774 106.432 55.4727 98.0004 55.4727H96.7914V9.12695H98.0004Z" fill="#FFD400" stroke="black" stroke-width="2.41776"/>
<path d="M88.8929 9.12695V10.3359C88.8929 20.6742 86.8611 30.9114 82.9125 40.4629C78.9638 50.0144 73.1757 58.6935 65.8793 66.0039C58.5831 73.3147 49.9206 79.1146 40.3871 83.0713C30.8534 87.028 20.635 89.0645 10.3158 89.0645H9.10681V47.8867H10.3158C15.2368 47.8867 20.1101 46.9152 24.6566 45.0283C29.2029 43.1414 33.334 40.3762 36.8138 36.8896C40.2938 33.4029 43.0544 29.263 44.9379 24.707C46.8214 20.151 47.7914 15.2675 47.7914 10.3359V9.12695H88.8929Z" fill="#FFD400" stroke="black" stroke-width="2.41776"/>
</svg>
