<svg width="36" height="36" viewBox="0 0 36 36" fill="none" xmlns="http://www.w3.org/2000/svg">
<path d="M7.5 10.125C7.5 9.51562 7.96875 9 8.625 9H27.375C27.9844 9 28.5 9.51562 28.5 10.125C28.5 10.7812 27.9844 11.25 27.375 11.25H8.625C7.96875 11.25 7.5 10.7812 7.5 10.125ZM7.5 17.625C7.5 17.0156 7.96875 16.5 8.625 16.5H21.375C21.9844 16.5 22.5 17.0156 22.5 17.625C22.5 18.2812 21.9844 18.75 21.375 18.75H8.625C7.96875 18.75 7.5 18.2812 7.5 17.625ZM16.5 25.125C16.5 25.7812 15.9844 26.25 15.375 26.25H8.625C7.96875 26.25 7.5 25.7812 7.5 25.125C7.5 24.5156 7.96875 24 8.625 24H15.375C15.9844 24 16.5 24.5156 16.5 25.125Z" fill="#182230"/>
</svg>
