<svg width="159" height="38" viewBox="0 0 159 38" fill="none" xmlns="http://www.w3.org/2000/svg">
<g clip-path="url(#clip0_60_30674)">
<path d="M19 1C22.5599 1 26.04 2.05548 29 4.0332C31.96 6.01101 34.2675 8.82242 35.6299 12.1113C36.9922 15.4004 37.3488 19.0201 36.6543 22.5117C35.9598 26.0033 34.2449 29.2102 31.7275 31.7275C29.2102 34.2449 26.0033 35.9598 22.5117 36.6543C19.0201 37.3488 15.4004 36.9922 12.1113 35.6299C8.82242 34.2675 6.01101 31.96 4.0332 29C2.05548 26.04 1 22.5599 1 19V18H11.5V19C11.5 20.4833 11.9396 21.9336 12.7637 23.167C13.5877 24.4003 14.7595 25.361 16.1299 25.9287C17.5002 26.4963 19.0081 26.6448 20.4629 26.3555C21.9177 26.0661 23.2547 25.3526 24.3037 24.3037C25.3526 23.2547 26.0661 21.9177 26.3555 20.4629C26.6448 19.0081 26.4963 17.5002 25.9287 16.1299C25.361 14.7595 24.4003 13.5877 23.167 12.7637C21.9336 11.9396 20.4833 11.5 19 11.5H18V1H19Z" fill="#FFD400" stroke="black" stroke-width="2"/>
<path d="M18 1V2C18 4.10114 17.5863 6.18183 16.7822 8.12305C15.9782 10.0642 14.7992 11.8278 13.3135 13.3135C11.8278 14.7992 10.0642 15.9782 8.12305 16.7822C6.18183 17.5863 4.10115 18 2 18H1V8.5H2C2.85359 8.5 3.69868 8.33153 4.4873 8.00488C5.27572 7.67831 5.99223 7.20003 6.5957 6.59668H6.59668C7.20026 5.9931 7.67822 5.27592 8.00488 4.4873C8.33154 3.6987 8.5 2.8536 8.5 2V1H18Z" fill="#FFD400" stroke="black" stroke-width="2"/>
</g>
<path d="M55.504 27.788C53.76 27.788 52.256 27.476 50.992 26.852C49.728 26.228 48.76 25.284 48.088 24.02C47.416 22.756 47.08 21.172 47.08 19.268C47.08 17.332 47.416 15.74 48.088 14.492C48.76 13.228 49.728 12.292 50.992 11.684C52.256 11.06 53.76 10.748 55.504 10.748C57.28 10.748 58.792 11.06 60.04 11.684C61.304 12.292 62.272 13.228 62.944 14.492C63.616 15.74 63.952 17.332 63.952 19.268C63.952 21.172 63.616 22.756 62.944 24.02C62.272 25.284 61.304 26.228 60.04 26.852C58.792 27.476 57.28 27.788 55.504 27.788ZM55.504 24.86C56.288 24.86 56.976 24.748 57.568 24.524C58.16 24.3 58.656 23.964 59.056 23.516C59.456 23.068 59.76 22.524 59.968 21.884C60.176 21.228 60.28 20.484 60.28 19.652V18.908C60.28 18.06 60.176 17.308 59.968 16.652C59.76 15.996 59.456 15.452 59.056 15.02C58.656 14.572 58.16 14.236 57.568 14.012C56.976 13.788 56.288 13.676 55.504 13.676C54.736 13.676 54.056 13.788 53.464 14.012C52.872 14.236 52.376 14.572 51.976 15.02C51.576 15.452 51.272 15.996 51.064 16.652C50.872 17.308 50.776 18.06 50.776 18.908V19.652C50.776 20.484 50.872 21.228 51.064 21.884C51.272 22.524 51.576 23.068 51.976 23.516C52.376 23.964 52.872 24.3 53.464 24.524C54.056 24.748 54.736 24.86 55.504 24.86ZM66.5673 27.5V14.876H69.3273L69.5913 16.604H69.7593C70.0473 16.188 70.3913 15.828 70.7913 15.524C71.2073 15.22 71.6713 14.988 72.1833 14.828C72.6953 14.668 73.2553 14.588 73.8633 14.588C74.6953 14.588 75.4233 14.74 76.0473 15.044C76.6713 15.348 77.1513 15.828 77.4873 16.484C77.8393 17.14 78.0153 17.996 78.0153 19.052V27.5H74.6793V19.58C74.6793 19.18 74.6313 18.844 74.5353 18.572C74.4393 18.284 74.2953 18.052 74.1033 17.876C73.9273 17.684 73.7033 17.548 73.4313 17.468C73.1593 17.388 72.8553 17.348 72.5193 17.348C72.0233 17.348 71.5753 17.468 71.1753 17.708C70.7753 17.948 70.4633 18.276 70.2393 18.692C70.0153 19.108 69.9033 19.588 69.9033 20.132V27.5H66.5673ZM86.7408 27.788C85.3488 27.788 84.1808 27.556 83.2368 27.092C82.2928 26.612 81.5808 25.884 81.1008 24.908C80.6208 23.932 80.3808 22.692 80.3808 21.188C80.3808 19.668 80.6208 18.428 81.1008 17.468C81.5808 16.492 82.2848 15.772 83.2128 15.308C84.1568 14.828 85.3088 14.588 86.6688 14.588C87.9488 14.588 89.0288 14.82 89.9088 15.284C90.7888 15.732 91.4528 16.436 91.9008 17.396C92.3488 18.34 92.5728 19.564 92.5728 21.068V21.932H83.7648C83.7968 22.668 83.9088 23.292 84.1008 23.804C84.3088 24.316 84.6208 24.7 85.0368 24.956C85.4688 25.196 86.0368 25.316 86.7408 25.316C87.1248 25.316 87.4688 25.268 87.7728 25.172C88.0928 25.076 88.3648 24.932 88.5888 24.74C88.8128 24.548 88.9888 24.308 89.1168 24.02C89.2448 23.732 89.3088 23.404 89.3088 23.036H92.5728C92.5728 23.836 92.4288 24.532 92.1407 25.124C91.8528 25.716 91.4528 26.212 90.9408 26.612C90.4288 26.996 89.8128 27.292 89.0928 27.5C88.3888 27.692 87.6048 27.788 86.7408 27.788ZM83.8128 19.82H89.1408C89.1408 19.34 89.0768 18.924 88.9488 18.572C88.8368 18.22 88.6768 17.932 88.4688 17.708C88.2608 17.484 88.0048 17.324 87.7008 17.228C87.4128 17.116 87.0848 17.06 86.7168 17.06C86.1088 17.06 85.5968 17.164 85.1808 17.372C84.7808 17.564 84.4688 17.868 84.2448 18.284C84.0368 18.684 83.8928 19.196 83.8128 19.82ZM99.7244 27.5L93.7724 11.036H97.6364L101.188 21.548C101.252 21.724 101.324 21.94 101.404 22.196C101.484 22.436 101.564 22.676 101.644 22.916C101.724 23.156 101.788 23.372 101.836 23.564H101.98C102.044 23.388 102.108 23.188 102.172 22.964C102.252 22.724 102.324 22.484 102.388 22.244C102.468 22.004 102.54 21.78 102.604 21.572L106.156 11.036H109.876L103.9 27.5H99.7244ZM111.684 13.028V10.148H115.02V13.028H111.684ZM111.684 27.5V14.876H115.02V27.5H111.684ZM123.195 27.788C122.315 27.788 121.523 27.692 120.819 27.5C120.115 27.308 119.515 27.044 119.019 26.708C118.523 26.356 118.139 25.94 117.867 25.46C117.611 24.98 117.483 24.436 117.483 23.828C117.483 23.764 117.483 23.7 117.483 23.636C117.483 23.572 117.491 23.524 117.507 23.492H120.723C120.723 23.524 120.723 23.556 120.723 23.588C120.723 23.62 120.723 23.652 120.723 23.684C120.739 24.084 120.867 24.412 121.107 24.668C121.347 24.908 121.659 25.084 122.043 25.196C122.443 25.308 122.859 25.364 123.291 25.364C123.675 25.364 124.043 25.332 124.395 25.268C124.763 25.188 125.067 25.052 125.307 24.86C125.563 24.668 125.691 24.42 125.691 24.116C125.691 23.732 125.531 23.436 125.211 23.228C124.907 23.02 124.499 22.852 123.987 22.724C123.491 22.596 122.947 22.452 122.355 22.292C121.811 22.164 121.267 22.02 120.723 21.86C120.179 21.684 119.683 21.46 119.235 21.188C118.803 20.916 118.451 20.564 118.179 20.132C117.907 19.684 117.771 19.124 117.771 18.452C117.771 17.796 117.915 17.228 118.203 16.748C118.491 16.252 118.883 15.844 119.379 15.524C119.891 15.204 120.483 14.972 121.155 14.828C121.843 14.668 122.579 14.588 123.363 14.588C124.099 14.588 124.787 14.668 125.427 14.828C126.067 14.972 126.627 15.196 127.107 15.5C127.587 15.788 127.963 16.156 128.235 16.604C128.507 17.036 128.643 17.524 128.643 18.068C128.643 18.18 128.643 18.284 128.643 18.38C128.643 18.476 128.635 18.54 128.619 18.572H125.427V18.38C125.427 18.092 125.339 17.852 125.163 17.66C124.987 17.452 124.731 17.292 124.395 17.18C124.075 17.068 123.683 17.012 123.219 17.012C122.899 17.012 122.603 17.036 122.331 17.084C122.075 17.132 121.851 17.204 121.659 17.3C121.467 17.396 121.315 17.516 121.203 17.66C121.107 17.788 121.059 17.948 121.059 18.14C121.059 18.412 121.171 18.636 121.395 18.812C121.635 18.972 121.947 19.108 122.331 19.22C122.715 19.332 123.139 19.452 123.603 19.58C124.179 19.74 124.779 19.9 125.403 20.06C126.043 20.204 126.635 20.404 127.179 20.66C127.723 20.916 128.163 21.284 128.499 21.764C128.835 22.228 129.003 22.86 129.003 23.66C129.003 24.428 128.851 25.076 128.547 25.604C128.259 26.132 127.851 26.556 127.323 26.876C126.795 27.196 126.179 27.428 125.475 27.572C124.771 27.716 124.011 27.788 123.195 27.788ZM131.419 13.028V10.148H134.755V13.028H131.419ZM131.419 27.5V14.876H134.755V27.5H131.419ZM141.585 27.788C140.785 27.788 140.137 27.644 139.641 27.356C139.145 27.068 138.785 26.684 138.561 26.204C138.337 25.708 138.225 25.164 138.225 24.572V17.444H136.665V14.876H138.345L138.969 11.276H141.561V14.876H143.865V17.444H141.561V24.02C141.561 24.404 141.649 24.7 141.825 24.908C142.001 25.1 142.289 25.196 142.689 25.196H143.865V27.404C143.673 27.468 143.449 27.524 143.193 27.572C142.937 27.636 142.665 27.684 142.377 27.716C142.089 27.764 141.825 27.788 141.585 27.788Z" fill="#101828"/>
<defs>
<clipPath id="clip0_60_30674">
<rect width="38" height="38" fill="white"/>
</clipPath>
</defs>
</svg>
