<svg width="18" height="20" viewBox="0 0 18 20" fill="none" xmlns="http://www.w3.org/2000/svg">
<path d="M7.3125 3.34375L7.75 2.15625C7.78125 2.0625 7.875 2 8 2C8.09375 2 8.1875 2.0625 8.21875 2.15625L8.65625 3.34375L9.84375 3.78125C9.9375 3.8125 10 3.90625 10 4C10 4.125 9.9375 4.21875 9.84375 4.25L8.65625 4.6875L8.21875 5.84375C8.1875 5.9375 8.09375 6 8 6C7.875 6 7.78125 5.9375 7.75 5.84375L7.3125 4.6875L6.15625 4.25C6.0625 4.21875 6 4.125 6 4C6 3.90625 6.0625 3.8125 6.15625 3.78125L7.3125 3.34375ZM1.4375 14.375L13.3438 2.46875C13.9375 1.875 14.875 1.875 15.4688 2.46875L16.5312 3.53125C17.125 4.125 17.125 5.0625 16.5312 5.65625L4.625 17.5625C4.03125 18.1562 3.09375 18.1562 2.5 17.5625L1.4375 16.5C0.84375 15.9062 0.84375 14.9688 1.4375 14.375ZM15.125 4.59375L14.4062 3.875L11.125 7.15625L11.8438 7.875L15.125 4.59375ZM0.21875 5.6875L2 5L2.65625 3.25C2.6875 3.09375 2.84375 3 3 3C3.125 3 3.28125 3.09375 3.3125 3.25L4 5L5.75 5.6875C5.90625 5.71875 6 5.875 6 6C6 6.15625 5.90625 6.3125 5.75 6.34375L4 7L3.3125 8.78125C3.28125 8.90625 3.125 9 3 9C2.84375 9 2.6875 8.90625 2.65625 8.78125L2 7L0.21875 6.34375C0.09375 6.3125 0 6.15625 0 6C0 5.875 0.09375 5.71875 0.21875 5.6875ZM11.2188 13.6875L13 13L13.6562 11.25C13.6875 11.0938 13.8438 11 14 11C14.125 11 14.2812 11.0938 14.3125 11.25L15 13L16.75 13.6875C16.9062 13.7188 17 13.875 17 14C17 14.1562 16.9062 14.3125 16.75 14.3438L15 15L14.3125 16.7812C14.2812 16.9062 14.125 17 14 17C13.8438 17 13.6875 16.9062 13.6562 16.7812L13 15L11.2188 14.3438C11.0938 14.3125 11 14.1562 11 14C11 13.875 11.0938 13.7188 11.2188 13.6875Z" fill="#3538CD"/>
</svg>
