<svg width="36" height="36" viewBox="0 0 36 36" fill="none" xmlns="http://www.w3.org/2000/svg">
<path d="M23.25 15.75C23.25 13.0781 21.7969 10.6406 19.5 9.28125C17.1562 7.92188 14.2969 7.92188 12 9.28125C9.65625 10.6406 8.25 13.0781 8.25 15.75C8.25 18.4688 9.65625 20.9062 12 22.2656C14.2969 23.625 17.1562 23.625 19.5 22.2656C21.7969 20.9062 23.25 18.4688 23.25 15.75ZM21.7969 23.4375C20.1094 24.75 18 25.5 15.75 25.5C10.3594 25.5 6 21.1406 6 15.75C6 10.4062 10.3594 6 15.75 6C21.0938 6 25.5 10.4062 25.5 15.75C25.5 18.0469 24.7031 20.1562 23.3906 21.8438L29.6719 28.0781C30.0938 28.5469 30.0938 29.25 29.6719 29.6719C29.2031 30.1406 28.5 30.1406 28.0781 29.6719L21.7969 23.4375Z" fill="#182230"/>
</svg>
