<svg preserveAspectRatio="none" width="100%" height="100%" overflow="visible" style="display: block;" viewBox="0 0 13.5 16.4998" fill="none" xmlns="http://www.w3.org/2000/svg">
<g id="Group">
<path id="Vector" d="M12.75 6.75C12.75 10.4948 8.59575 14.3947 7.20075 15.5992C6.93378 15.8 6.56622 15.8 6.29925 15.5992C4.90425 14.3947 0.75 10.4948 0.75 6.75C0.75 3.43851 3.43851 0.75 6.75 0.75C10.0615 0.75 12.75 3.43851 12.75 6.75" stroke="var(--stroke-0, #8A8F94)" stroke-width="1.5" stroke-linecap="round" stroke-linejoin="round"/>
<path id="Vector_2" d="M4.5 6.75C4.5 7.99181 5.50819 9 6.75 9C7.99181 9 9 7.99181 9 6.75C9 5.50819 7.99181 4.5 6.75 4.5C5.50819 4.5 4.5 5.50819 4.5 6.75V6.75" stroke="var(--stroke-0, #8A8F94)" stroke-width="1.5" stroke-linecap="round" stroke-linejoin="round"/>
</g>
</svg>
