<svg xmlns="http://www.w3.org/2000/svg" viewBox="-1 -1 40 40" width="32" height="32" fill="none">
  <rect x="-1" y="-1" width="40" height="40" rx="9" fill="#182230"/>
  <path
    d="M19 1C22.5599 1 26.04 2.05548 29 4.0332C31.96 6.01101 34.2675 8.82242 35.6299 12.1113C36.9922 15.4004 37.3488 19.0201 36.6543 22.5117C35.9598 26.0033 34.2449 29.2102 31.7275 31.7275C29.2102 34.2449 26.0033 35.9598 22.5117 36.6543C19.0201 37.3488 15.4004 36.9922 12.1113 35.6299C8.82242 34.2675 6.01101 31.96 4.0332 29C2.05548 26.04 1 22.5599 1 19V18H11.5V19C11.5 20.4833 11.9396 21.9336 12.7637 23.167C13.5877 24.4003 14.7595 25.361 16.1299 25.9287C17.5002 26.4963 19.0081 26.6448 20.4629 26.3555C21.9177 26.0661 23.2547 25.3526 24.3037 24.3037C25.3526 23.2547 26.0661 21.9177 26.3555 20.4629C26.6448 19.0081 26.4963 17.5002 25.9287 16.1299C25.361 14.7595 24.4003 13.5877 23.167 12.7637C21.9336 11.9396 20.4833 11.5 19 11.5H18V1H19Z"
    fill="#FFD400"
    stroke="#000"
    stroke-width="2"
  />
  <path
    d="M18 1V2C18 4.10114 17.5863 6.18183 16.7822 8.12305C15.9782 10.0642 14.7992 11.8278 13.3135 13.3135C11.8278 14.7992 10.0642 15.9782 8.12305 16.7822C6.18183 17.5863 4.10115 18 2 18H1V8.5H2C2.85359 8.5 3.69868 8.33153 4.4873 8.00488C5.27572 7.67831 5.99223 7.20003 6.5957 6.59668H6.59668C7.20026 5.9931 7.67822 5.27592 8.00488 4.4873C8.33154 3.6987 8.5 2.8536 8.5 2V1H18Z"
    fill="#FFD400"
    stroke="#000"
    stroke-width="2"
  />
</svg>
